<mxfile host="app.diagrams.net" modified="2021-06-22T08:50:20.910Z" agent="5.0 (Windows NT 10.0; Win64; x64) AppleWebKit/537.36 (KHTML, like Gecko) Chrome/91.0.4472.106 Safari/537.36" etag="wOFUFxW0XRa1ytI8fqzg" version="14.8.0" type="github">
  <diagram id="C5RBs43oDa-KdzZeNtuy" name="Page-1">
    <mxGraphModel dx="1422" dy="762" grid="1" gridSize="10" guides="1" tooltips="1" connect="1" arrows="1" fold="1" page="1" pageScale="1" pageWidth="1654" pageHeight="1169" math="0" shadow="0">
      <root>
        <mxCell id="WIyWlLk6GJQsqaUBKTNV-0" />
        <mxCell id="WIyWlLk6GJQsqaUBKTNV-1" parent="WIyWlLk6GJQsqaUBKTNV-0" />
        <mxCell id="WIyWlLk6GJQsqaUBKTNV-2" value="" style="rounded=0;html=1;jettySize=auto;orthogonalLoop=1;fontSize=11;endArrow=block;endFill=0;endSize=8;strokeWidth=1;shadow=0;labelBackgroundColor=none;edgeStyle=orthogonalEdgeStyle;" parent="WIyWlLk6GJQsqaUBKTNV-1" source="WIyWlLk6GJQsqaUBKTNV-3" target="WIyWlLk6GJQsqaUBKTNV-6" edge="1">
          <mxGeometry relative="1" as="geometry" />
        </mxCell>
        <mxCell id="WIyWlLk6GJQsqaUBKTNV-3" value="Получение первичных данных (данные паспорта, м.ж. и тп)" style="rounded=1;whiteSpace=wrap;html=1;fontSize=12;glass=0;strokeWidth=1;shadow=0;" parent="WIyWlLk6GJQsqaUBKTNV-1" vertex="1">
          <mxGeometry x="765" y="40" width="120" height="60" as="geometry" />
        </mxCell>
        <mxCell id="WIyWlLk6GJQsqaUBKTNV-4" value="Замена удостоверения" style="rounded=0;html=1;jettySize=auto;orthogonalLoop=1;fontSize=11;endArrow=block;endFill=0;endSize=8;strokeWidth=1;shadow=0;labelBackgroundColor=none;edgeStyle=orthogonalEdgeStyle;entryX=0;entryY=0.5;entryDx=0;entryDy=0;" parent="WIyWlLk6GJQsqaUBKTNV-1" source="WIyWlLk6GJQsqaUBKTNV-6" target="LP5ZY8irFqe8Ylj5ovww-49" edge="1">
          <mxGeometry x="-0.1429" relative="1" as="geometry">
            <mxPoint as="offset" />
            <mxPoint x="824.9999999999995" y="260" as="targetPoint" />
          </mxGeometry>
        </mxCell>
        <mxCell id="WIyWlLk6GJQsqaUBKTNV-5" value="Выдача удостоверения" style="edgeStyle=orthogonalEdgeStyle;rounded=0;html=1;jettySize=auto;orthogonalLoop=1;fontSize=11;endArrow=block;endFill=0;endSize=8;strokeWidth=1;shadow=0;labelBackgroundColor=none;entryX=0.5;entryY=0;entryDx=0;entryDy=0;" parent="WIyWlLk6GJQsqaUBKTNV-1" source="WIyWlLk6GJQsqaUBKTNV-6" target="LP5ZY8irFqe8Ylj5ovww-3" edge="1">
          <mxGeometry y="10" relative="1" as="geometry">
            <mxPoint as="offset" />
            <mxPoint x="440" y="190" as="targetPoint" />
          </mxGeometry>
        </mxCell>
        <mxCell id="WIyWlLk6GJQsqaUBKTNV-6" value="Цель обращения" style="rhombus;whiteSpace=wrap;html=1;shadow=0;fontFamily=Helvetica;fontSize=12;align=center;strokeWidth=1;spacing=6;spacingTop=-4;" parent="WIyWlLk6GJQsqaUBKTNV-1" vertex="1">
          <mxGeometry x="775" y="130" width="100" height="80" as="geometry" />
        </mxCell>
        <mxCell id="LP5ZY8irFqe8Ylj5ovww-7" value="Первичное получение &lt;br&gt;удостоверения" style="edgeStyle=orthogonalEdgeStyle;rounded=0;orthogonalLoop=1;jettySize=auto;html=1;entryX=0.5;entryY=0;entryDx=0;entryDy=0;" edge="1" parent="WIyWlLk6GJQsqaUBKTNV-1" source="LP5ZY8irFqe8Ylj5ovww-3" target="LP5ZY8irFqe8Ylj5ovww-5">
          <mxGeometry relative="1" as="geometry" />
        </mxCell>
        <mxCell id="LP5ZY8irFqe8Ylj5ovww-8" value="Получение удостоверения после &lt;br&gt;истечения срока лишения права &lt;br&gt;управления транспортными средствами" style="edgeStyle=orthogonalEdgeStyle;rounded=0;orthogonalLoop=1;jettySize=auto;html=1;entryX=0.5;entryY=0;entryDx=0;entryDy=0;" edge="1" parent="WIyWlLk6GJQsqaUBKTNV-1" source="LP5ZY8irFqe8Ylj5ovww-3" target="LP5ZY8irFqe8Ylj5ovww-6">
          <mxGeometry relative="1" as="geometry" />
        </mxCell>
        <mxCell id="LP5ZY8irFqe8Ylj5ovww-10" value="Получение удостоверения &lt;br&gt;взамен временного" style="edgeStyle=orthogonalEdgeStyle;rounded=0;orthogonalLoop=1;jettySize=auto;html=1;entryX=0.5;entryY=0;entryDx=0;entryDy=0;" edge="1" parent="WIyWlLk6GJQsqaUBKTNV-1" source="LP5ZY8irFqe8Ylj5ovww-3" target="LP5ZY8irFqe8Ylj5ovww-9">
          <mxGeometry relative="1" as="geometry" />
        </mxCell>
        <mxCell id="LP5ZY8irFqe8Ylj5ovww-3" value="Вы обращаетесь за выдачей удостоверения первично?" style="rhombus;whiteSpace=wrap;html=1;shadow=0;fontFamily=Helvetica;fontSize=12;align=center;strokeWidth=1;spacing=6;spacingTop=-4;" vertex="1" parent="WIyWlLk6GJQsqaUBKTNV-1">
          <mxGeometry x="370" y="210" width="140" height="110" as="geometry" />
        </mxCell>
        <mxCell id="LP5ZY8irFqe8Ylj5ovww-12" value="Да" style="edgeStyle=orthogonalEdgeStyle;rounded=0;orthogonalLoop=1;jettySize=auto;html=1;entryX=0.5;entryY=0;entryDx=0;entryDy=0;" edge="1" parent="WIyWlLk6GJQsqaUBKTNV-1" source="LP5ZY8irFqe8Ylj5ovww-5" target="LP5ZY8irFqe8Ylj5ovww-11">
          <mxGeometry relative="1" as="geometry" />
        </mxCell>
        <mxCell id="LP5ZY8irFqe8Ylj5ovww-47" value="Нет" style="edgeStyle=orthogonalEdgeStyle;rounded=0;orthogonalLoop=1;jettySize=auto;html=1;entryX=1;entryY=0.5;entryDx=0;entryDy=0;" edge="1" parent="WIyWlLk6GJQsqaUBKTNV-1" source="LP5ZY8irFqe8Ylj5ovww-5" target="LP5ZY8irFqe8Ylj5ovww-29">
          <mxGeometry relative="1" as="geometry">
            <Array as="points">
              <mxPoint x="340" y="410" />
              <mxPoint x="340" y="730" />
            </Array>
          </mxGeometry>
        </mxCell>
        <mxCell id="LP5ZY8irFqe8Ylj5ovww-5" value="У вас имеется водительское удостоверение?" style="rhombus;whiteSpace=wrap;html=1;shadow=0;fontFamily=Helvetica;fontSize=12;align=center;strokeWidth=1;spacing=6;spacingTop=-4;" vertex="1" parent="WIyWlLk6GJQsqaUBKTNV-1">
          <mxGeometry x="200" y="370" width="100" height="80" as="geometry" />
        </mxCell>
        <mxCell id="LP5ZY8irFqe8Ylj5ovww-17" style="edgeStyle=orthogonalEdgeStyle;rounded=0;orthogonalLoop=1;jettySize=auto;html=1;entryX=0.5;entryY=0;entryDx=0;entryDy=0;" edge="1" parent="WIyWlLk6GJQsqaUBKTNV-1" source="LP5ZY8irFqe8Ylj5ovww-6" target="LP5ZY8irFqe8Ylj5ovww-15">
          <mxGeometry relative="1" as="geometry" />
        </mxCell>
        <mxCell id="LP5ZY8irFqe8Ylj5ovww-6" value="Загрузка документа &quot;Индивидуальная карточка или другой документ, подтверждающий выдачу удостоверения на право управления самоходными машинами&quot;" style="rounded=1;whiteSpace=wrap;html=1;shadow=0;strokeWidth=1;" vertex="1" parent="WIyWlLk6GJQsqaUBKTNV-1">
          <mxGeometry x="360" y="400" width="160" height="120" as="geometry" />
        </mxCell>
        <mxCell id="LP5ZY8irFqe8Ylj5ovww-46" style="edgeStyle=orthogonalEdgeStyle;rounded=0;orthogonalLoop=1;jettySize=auto;html=1;entryX=1;entryY=0.5;entryDx=0;entryDy=0;" edge="1" parent="WIyWlLk6GJQsqaUBKTNV-1" source="LP5ZY8irFqe8Ylj5ovww-9" target="LP5ZY8irFqe8Ylj5ovww-31">
          <mxGeometry relative="1" as="geometry">
            <Array as="points">
              <mxPoint x="650" y="805" />
            </Array>
          </mxGeometry>
        </mxCell>
        <mxCell id="LP5ZY8irFqe8Ylj5ovww-9" value="Загрузка документа &quot;Временное удостоверение тракториста-машиниста&quot;" style="rounded=1;whiteSpace=wrap;html=1;shadow=0;strokeWidth=1;" vertex="1" parent="WIyWlLk6GJQsqaUBKTNV-1">
          <mxGeometry x="570" y="390" width="160" height="70" as="geometry" />
        </mxCell>
        <mxCell id="LP5ZY8irFqe8Ylj5ovww-25" value="Да" style="edgeStyle=orthogonalEdgeStyle;rounded=0;orthogonalLoop=1;jettySize=auto;html=1;entryX=0.5;entryY=0;entryDx=0;entryDy=0;" edge="1" parent="WIyWlLk6GJQsqaUBKTNV-1" source="LP5ZY8irFqe8Ylj5ovww-11" target="LP5ZY8irFqe8Ylj5ovww-24">
          <mxGeometry relative="1" as="geometry" />
        </mxCell>
        <mxCell id="LP5ZY8irFqe8Ylj5ovww-28" value="Нет" style="edgeStyle=orthogonalEdgeStyle;rounded=0;orthogonalLoop=1;jettySize=auto;html=1;entryX=0.5;entryY=0;entryDx=0;entryDy=0;" edge="1" parent="WIyWlLk6GJQsqaUBKTNV-1" source="LP5ZY8irFqe8Ylj5ovww-11" target="LP5ZY8irFqe8Ylj5ovww-26">
          <mxGeometry relative="1" as="geometry" />
        </mxCell>
        <mxCell id="LP5ZY8irFqe8Ylj5ovww-11" value="Вы гражданин РФ?" style="rhombus;whiteSpace=wrap;html=1;shadow=0;fontFamily=Helvetica;fontSize=12;align=center;strokeWidth=1;spacing=6;spacingTop=-4;" vertex="1" parent="WIyWlLk6GJQsqaUBKTNV-1">
          <mxGeometry x="200" y="500" width="100" height="80" as="geometry" />
        </mxCell>
        <mxCell id="LP5ZY8irFqe8Ylj5ovww-18" style="edgeStyle=orthogonalEdgeStyle;rounded=0;orthogonalLoop=1;jettySize=auto;html=1;entryX=0.5;entryY=0;entryDx=0;entryDy=0;" edge="1" parent="WIyWlLk6GJQsqaUBKTNV-1" source="LP5ZY8irFqe8Ylj5ovww-15" target="LP5ZY8irFqe8Ylj5ovww-16">
          <mxGeometry relative="1" as="geometry" />
        </mxCell>
        <mxCell id="LP5ZY8irFqe8Ylj5ovww-15" value="Загрузка документа &quot;Медицинская справка&quot;" style="rounded=1;whiteSpace=wrap;html=1;shadow=0;strokeWidth=1;" vertex="1" parent="WIyWlLk6GJQsqaUBKTNV-1">
          <mxGeometry x="360" y="560" width="160" height="50" as="geometry" />
        </mxCell>
        <mxCell id="LP5ZY8irFqe8Ylj5ovww-16" value="Выбор подразделения и завершение услуги" style="ellipse;whiteSpace=wrap;html=1;shadow=0;strokeWidth=1;" vertex="1" parent="WIyWlLk6GJQsqaUBKTNV-1">
          <mxGeometry x="380" y="660" width="120" height="80" as="geometry" />
        </mxCell>
        <mxCell id="LP5ZY8irFqe8Ylj5ovww-30" style="edgeStyle=orthogonalEdgeStyle;rounded=0;orthogonalLoop=1;jettySize=auto;html=1;entryX=0.5;entryY=0;entryDx=0;entryDy=0;" edge="1" parent="WIyWlLk6GJQsqaUBKTNV-1" source="LP5ZY8irFqe8Ylj5ovww-24" target="LP5ZY8irFqe8Ylj5ovww-29">
          <mxGeometry relative="1" as="geometry" />
        </mxCell>
        <mxCell id="LP5ZY8irFqe8Ylj5ovww-24" value="Загрузка документа &quot;Водительское удостоверение&quot;" style="rounded=1;whiteSpace=wrap;html=1;shadow=0;strokeWidth=1;" vertex="1" parent="WIyWlLk6GJQsqaUBKTNV-1">
          <mxGeometry x="180" y="630" width="140" height="50" as="geometry" />
        </mxCell>
        <mxCell id="LP5ZY8irFqe8Ylj5ovww-44" style="edgeStyle=orthogonalEdgeStyle;rounded=0;orthogonalLoop=1;jettySize=auto;html=1;entryX=0;entryY=0.5;entryDx=0;entryDy=0;" edge="1" parent="WIyWlLk6GJQsqaUBKTNV-1" source="LP5ZY8irFqe8Ylj5ovww-26" target="LP5ZY8irFqe8Ylj5ovww-29">
          <mxGeometry relative="1" as="geometry">
            <Array as="points">
              <mxPoint x="95" y="730" />
            </Array>
          </mxGeometry>
        </mxCell>
        <mxCell id="LP5ZY8irFqe8Ylj5ovww-26" value="Загрузка документа &quot;Водительское удостоверение иностранного гражданина&quot;" style="rounded=1;whiteSpace=wrap;html=1;shadow=0;strokeWidth=1;" vertex="1" parent="WIyWlLk6GJQsqaUBKTNV-1">
          <mxGeometry x="40" y="590" width="110" height="90" as="geometry" />
        </mxCell>
        <mxCell id="LP5ZY8irFqe8Ylj5ovww-33" style="edgeStyle=orthogonalEdgeStyle;rounded=0;orthogonalLoop=1;jettySize=auto;html=1;" edge="1" parent="WIyWlLk6GJQsqaUBKTNV-1" source="LP5ZY8irFqe8Ylj5ovww-29" target="LP5ZY8irFqe8Ylj5ovww-31">
          <mxGeometry relative="1" as="geometry" />
        </mxCell>
        <mxCell id="LP5ZY8irFqe8Ylj5ovww-29" value="Выбор категорий" style="rounded=1;whiteSpace=wrap;html=1;shadow=0;strokeWidth=1;" vertex="1" parent="WIyWlLk6GJQsqaUBKTNV-1">
          <mxGeometry x="195" y="710" width="110" height="40" as="geometry" />
        </mxCell>
        <mxCell id="LP5ZY8irFqe8Ylj5ovww-34" style="edgeStyle=orthogonalEdgeStyle;rounded=0;orthogonalLoop=1;jettySize=auto;html=1;" edge="1" parent="WIyWlLk6GJQsqaUBKTNV-1" source="LP5ZY8irFqe8Ylj5ovww-31" target="LP5ZY8irFqe8Ylj5ovww-32">
          <mxGeometry relative="1" as="geometry" />
        </mxCell>
        <mxCell id="LP5ZY8irFqe8Ylj5ovww-31" value="Загрузка документа &quot;Документ о прохождении обучения&quot;" style="rounded=1;whiteSpace=wrap;html=1;shadow=0;strokeWidth=1;" vertex="1" parent="WIyWlLk6GJQsqaUBKTNV-1">
          <mxGeometry x="170" y="770" width="160" height="70" as="geometry" />
        </mxCell>
        <mxCell id="LP5ZY8irFqe8Ylj5ovww-35" style="edgeStyle=orthogonalEdgeStyle;rounded=0;orthogonalLoop=1;jettySize=auto;html=1;entryX=0.5;entryY=1;entryDx=0;entryDy=0;" edge="1" parent="WIyWlLk6GJQsqaUBKTNV-1" source="LP5ZY8irFqe8Ylj5ovww-32" target="LP5ZY8irFqe8Ylj5ovww-16">
          <mxGeometry relative="1" as="geometry" />
        </mxCell>
        <mxCell id="LP5ZY8irFqe8Ylj5ovww-32" value="Загрузка документа &quot;Медицинская справка&quot;" style="rounded=1;whiteSpace=wrap;html=1;shadow=0;strokeWidth=1;" vertex="1" parent="WIyWlLk6GJQsqaUBKTNV-1">
          <mxGeometry x="170" y="860" width="160" height="50" as="geometry" />
        </mxCell>
        <mxCell id="LP5ZY8irFqe8Ylj5ovww-54" style="edgeStyle=orthogonalEdgeStyle;rounded=0;orthogonalLoop=1;jettySize=auto;html=1;" edge="1" parent="WIyWlLk6GJQsqaUBKTNV-1" source="LP5ZY8irFqe8Ylj5ovww-49" target="LP5ZY8irFqe8Ylj5ovww-53">
          <mxGeometry relative="1" as="geometry" />
        </mxCell>
        <mxCell id="LP5ZY8irFqe8Ylj5ovww-49" value="В связи с чем производится замена удостоверения?" style="rhombus;whiteSpace=wrap;html=1;shadow=0;fontFamily=Helvetica;fontSize=12;align=center;strokeWidth=1;spacing=6;spacingTop=-4;" vertex="1" parent="WIyWlLk6GJQsqaUBKTNV-1">
          <mxGeometry x="1090" y="120" width="130" height="100" as="geometry" />
        </mxCell>
        <mxCell id="LP5ZY8irFqe8Ylj5ovww-56" value="Присвоение &lt;br&gt;дополнительной &lt;br&gt;квалификации" style="edgeStyle=orthogonalEdgeStyle;rounded=0;orthogonalLoop=1;jettySize=auto;html=1;" edge="1" parent="WIyWlLk6GJQsqaUBKTNV-1" source="LP5ZY8irFqe8Ylj5ovww-53">
          <mxGeometry x="0.0526" relative="1" as="geometry">
            <mxPoint x="940" y="430" as="targetPoint" />
            <Array as="points">
              <mxPoint x="940" y="430" />
            </Array>
            <mxPoint as="offset" />
          </mxGeometry>
        </mxCell>
        <mxCell id="LP5ZY8irFqe8Ylj5ovww-59" value="Присвоение &lt;br&gt;квалификации &lt;br&gt;в рамках &lt;br&gt;имеющихся &lt;br&gt;категорий" style="edgeStyle=orthogonalEdgeStyle;rounded=0;orthogonalLoop=1;jettySize=auto;html=1;" edge="1" parent="WIyWlLk6GJQsqaUBKTNV-1" source="LP5ZY8irFqe8Ylj5ovww-53">
          <mxGeometry relative="1" as="geometry">
            <mxPoint x="860" y="430" as="targetPoint" />
            <Array as="points">
              <mxPoint x="860" y="430" />
            </Array>
            <mxPoint as="offset" />
          </mxGeometry>
        </mxCell>
        <mxCell id="LP5ZY8irFqe8Ylj5ovww-60" value="Открытие &lt;br&gt;дополнительной &lt;br&gt;категории" style="edgeStyle=orthogonalEdgeStyle;rounded=0;orthogonalLoop=1;jettySize=auto;html=1;exitX=0.25;exitY=1;exitDx=0;exitDy=0;" edge="1" parent="WIyWlLk6GJQsqaUBKTNV-1">
          <mxGeometry relative="1" as="geometry">
            <mxPoint x="1014" y="430" as="targetPoint" />
            <mxPoint x="1013.75" y="300" as="sourcePoint" />
            <Array as="points">
              <mxPoint x="1014" y="410" />
              <mxPoint x="1014" y="410" />
            </Array>
            <mxPoint as="offset" />
          </mxGeometry>
        </mxCell>
        <mxCell id="LP5ZY8irFqe8Ylj5ovww-53" value="Выбор причины" style="rounded=1;whiteSpace=wrap;html=1;shadow=0;strokeWidth=1;" vertex="1" parent="WIyWlLk6GJQsqaUBKTNV-1">
          <mxGeometry x="852.5" y="260" width="605" height="40" as="geometry" />
        </mxCell>
        <mxCell id="LP5ZY8irFqe8Ylj5ovww-61" value="Хищение или утрата" style="edgeStyle=orthogonalEdgeStyle;rounded=0;orthogonalLoop=1;jettySize=auto;html=1;" edge="1" parent="WIyWlLk6GJQsqaUBKTNV-1">
          <mxGeometry relative="1" as="geometry">
            <mxPoint x="1090" y="710" as="targetPoint" />
            <mxPoint x="863.75" y="710.0285714285715" as="sourcePoint" />
            <Array as="points">
              <mxPoint x="920" y="710" />
              <mxPoint x="920" y="710" />
            </Array>
          </mxGeometry>
        </mxCell>
        <mxCell id="LP5ZY8irFqe8Ylj5ovww-62" value="Изменение фамилии, &lt;br&gt;имени или отчества" style="edgeStyle=orthogonalEdgeStyle;rounded=0;orthogonalLoop=1;jettySize=auto;html=1;" edge="1" parent="WIyWlLk6GJQsqaUBKTNV-1">
          <mxGeometry relative="1" as="geometry">
            <mxPoint x="1090" y="770" as="targetPoint" />
            <mxPoint x="860" y="770" as="sourcePoint" />
            <Array as="points">
              <mxPoint x="930" y="770" />
              <mxPoint x="930" y="770" />
            </Array>
          </mxGeometry>
        </mxCell>
        <mxCell id="LP5ZY8irFqe8Ylj5ovww-63" value="Замена национального &lt;br&gt;удостоверения" style="edgeStyle=orthogonalEdgeStyle;rounded=0;orthogonalLoop=1;jettySize=auto;html=1;exitX=1.012;exitY=0.972;exitDx=0;exitDy=0;exitPerimeter=0;" edge="1" parent="WIyWlLk6GJQsqaUBKTNV-1" source="LP5ZY8irFqe8Ylj5ovww-53">
          <mxGeometry relative="1" as="geometry">
            <mxPoint x="1090" y="829" as="targetPoint" />
            <mxPoint x="887.4999999999995" y="790" as="sourcePoint" />
            <Array as="points">
              <mxPoint x="1090" y="829" />
            </Array>
          </mxGeometry>
        </mxCell>
        <mxCell id="LP5ZY8irFqe8Ylj5ovww-64" value="Истек срок действия/&amp;nbsp;Удостоверение &lt;br&gt;пришло в негодность" style="edgeStyle=orthogonalEdgeStyle;rounded=0;orthogonalLoop=1;jettySize=auto;html=1;" edge="1" parent="WIyWlLk6GJQsqaUBKTNV-1">
          <mxGeometry x="0.0276" y="20" relative="1" as="geometry">
            <mxPoint x="1090" y="660" as="targetPoint" />
            <mxPoint x="860" y="660" as="sourcePoint" />
            <Array as="points">
              <mxPoint x="1090" y="660" />
            </Array>
            <mxPoint as="offset" />
          </mxGeometry>
        </mxCell>
        <mxCell id="LP5ZY8irFqe8Ylj5ovww-65" value="Загрузка документа &quot;Документ о присвоении квалификации&quot;" style="rounded=1;whiteSpace=wrap;html=1;shadow=0;strokeWidth=1;" vertex="1" parent="WIyWlLk6GJQsqaUBKTNV-1">
          <mxGeometry x="790" y="870" width="160" height="50" as="geometry" />
        </mxCell>
        <mxCell id="LP5ZY8irFqe8Ylj5ovww-66" value="Загрузка документа &quot;Удостоверение тракториста-машиниста (тракториста) или другое удостоверение на право управления самоходными машинами&lt;span style=&quot;color: rgba(0 , 0 , 0 , 0) ; font-family: monospace ; font-size: 0px&quot;&gt;%3CmxGraphModel%3E%3Croot%3E%3CmxCell%20id%3D%220%22%2F%3E%3CmxCell%20id%3D%221%22%20parent%3D%220%22%2F%3E%3CmxCell%20id%3D%222%22%20value%3D%22%D0%97%D0%B0%D0%B3%D1%80%D1%83%D0%B7%D0%BA%D0%B0%20%D0%B4%D0%BE%D0%BA%D1%83%D0%BC%D0%B5%D0%BD%D1%82%D0%B0%20%26quot%3B%D0%94%D0%BE%D0%BA%D1%83%D0%BC%D0%B5%D0%BD%D1%82%20%D0%BE%20%D0%BF%D1%80%D0%B8%D1%81%D0%B2%D0%BE%D0%B5%D0%BD%D0%B8%D0%B8%20%D0%BA%D0%B2%D0%B0%D0%BB%D0%B8%D1%84%D0%B8%D0%BA%D0%B0%D1%86%D0%B8%D0%B8%26quot%3B%22%20style%3D%22rounded%3D1%3BwhiteSpace%3Dwrap%3Bhtml%3D1%3Bshadow%3D0%3BstrokeWidth%3D1%3B%22%20vertex%3D%221%22%20parent%3D%221%22%3E%3CmxGeometry%20x%3D%221130%22%20y%3D%22420%22%20width%3D%22160%22%20height%3D%2250%22%20as%3D%22geometry%22%2F%3E%3C%2FmxCell%3E%3C%2Froot%3E%3C%2FmxGraphModel%3E&lt;/span&gt;&lt;span style=&quot;color: rgba(0 , 0 , 0 , 0) ; font-family: monospace ; font-size: 0px&quot;&gt;%3CmxGraphModel%3E%3Croot%3E%3CmxCell%20id%3D%220%22%2F%3E%3CmxCell%20id%3D%221%22%20parent%3D%220%22%2F%3E%3CmxCell%20id%3D%222%22%20value%3D%22%D0%97%D0%B0%D0%B3%D1%80%D1%83%D0%B7%D0%BA%D0%B0%20%D0%B4%D0%BE%D0%BA%D1%83%D0%BC%D0%B5%D0%BD%D1%82%D0%B0%20%26quot%3B%D0%94%D0%BE%D0%BA%D1%83%D0%BC%D0%B5%D0%BD%D1%82%20%D0%BE%20%D0%BF%D1%80%D0%B8%D1%81%D0%B2%D0%BE%D0%B5%D0%BD%D0%B8%D0%B8%20%D0%BA%D0%B2%D0%B0%D0%BB%D0%B8%D1%84%D0%B8%D0%BA%D0%B0%D1%86%D0%B8%D0%B8%26quot%3B%22%20style%3D%22rounded%3D1%3BwhiteSpace%3Dwrap%3Bhtml%3D1%3Bshadow%3D0%3BstrokeWidth%3D1%3B%22%20vertex%3D%221%22%20parent%3D%221%22%3E%3CmxGeometry%20x%3D%221130%22%20y%3D%22420%22%20width%3D%22160%22%20height%3D%2250%22%20as%3D%22geometry%22%2F%3E%3C%2FmxCell%3E%3C%2Froot%3E%3C%2FmxGraphModel%3E&lt;/span&gt;&quot;" style="rounded=1;whiteSpace=wrap;html=1;shadow=0;strokeWidth=1;" vertex="1" parent="WIyWlLk6GJQsqaUBKTNV-1">
          <mxGeometry x="980" y="860" width="220" height="80" as="geometry" />
        </mxCell>
        <mxCell id="LP5ZY8irFqe8Ylj5ovww-67" value="Загрузка документа &quot;Индивидуальная карточка или другой документ, подтверждающий выдачу удостоверения на право управления самоходными машинами&quot;" style="rounded=1;whiteSpace=wrap;html=1;shadow=0;strokeWidth=1;" vertex="1" parent="WIyWlLk6GJQsqaUBKTNV-1">
          <mxGeometry x="1240" y="850" width="160" height="120" as="geometry" />
        </mxCell>
        <mxCell id="LP5ZY8irFqe8Ylj5ovww-68" value="Загрузка документа &quot;Медицинская справка&quot;" style="rounded=1;whiteSpace=wrap;html=1;shadow=0;strokeWidth=1;" vertex="1" parent="WIyWlLk6GJQsqaUBKTNV-1">
          <mxGeometry x="1420" y="880" width="160" height="50" as="geometry" />
        </mxCell>
      </root>
    </mxGraphModel>
  </diagram>
</mxfile>
